<?xml version="1.0"?>
<svg version="1.1" xmlns="http://www.w3.org/2000/svg" width="400" height="200" style=""><path fill="#57c732" d="M15.833984375,111.40234375q0-0.478515625,0.328125-0.6083984375t0.7109375-0.1298828125q0.669921875,0,1.134765625,0.6015625t0.8818359375,1.3193359375t0.8271484375,1.3193359375t0.970703125,0.6015625q0.423828125,0,0.7724609375-0.2119140625t0.6015625-0.533203125t0.3896484375-0.724609375t0.13671875-0.7998046875q0-1.0390625-0.4169921875-2.146484375t-1.06640625-2.283203125t-1.3740234375-2.40625t-1.3671875-2.501953125t-1.06640625-2.5908203125t-0.423828125-2.6591796875q0-2.009765625,1.203125-3.1171875t3.171875-1.107421875q0.669921875,0,1.353515625,0.19140625t1.2578125,0.57421875t0.9365234375,0.943359375t0.3623046875,1.3125q0,0.24609375-0.3623046875,0.3212890625t-0.5263671875,0.0751953125q-0.24609375,0-0.533203125-0.0615234375t-0.369140625-0.3349609375t-0.232421875-0.62890625t-0.3759765625-0.6630859375t-0.533203125-0.533203125t-0.6767578125-0.2255859375q-0.615234375,0-1.0458984375,0.2529296875t-0.697265625,0.6767578125t-0.396484375,0.9501953125t-0.1298828125,1.0869140625q0,1.3125,0.451171875,2.6455078125t1.12109375,2.65234375t1.4560546875,2.6044921875t1.4560546875,2.501953125t1.12109375,2.37890625t0.451171875,2.201171875q0,0.9296875-0.4375,1.572265625t-1.107421875,1.0458984375t-1.4833984375,0.587890625t-1.5927734375,0.1845703125q-0.833984375,0-1.708984375-0.3349609375t-1.572265625-0.9228515625t-1.1484375-1.3740234375t-0.451171875-1.7021484375z M27.86072265625,109.16015625q0-0.779296875,0.1982421875-1.6064453125t0.62890625-1.490234375t1.0869140625-1.080078125t1.5859375-0.4169921875q0.697265625,0,1.4697265625,0.2392578125t1.4150390625,0.68359375t1.0458984375,1.0869140625t0.4033203125,1.435546875q0,0.95703125-0.3486328125,1.818359375t-0.9775390625,1.5380859375t-1.4697265625,1.06640625t-1.8251953125,0.3896484375q-0.806640625,0-1.408203125-0.2939453125t-1.0048828125-0.7861328125t-0.6015625-1.162109375t-0.1982421875-1.421875z M29.87048828125,109.1328125q0,0.24609375,0.0751953125,0.724609375t0.2255859375,0.9365234375t0.3896484375,0.79296875t0.5810546875,0.3076171875q0.724609375-0.08203125,1.1962890625-0.4716796875t0.765625-0.9501953125t0.41015625-1.216796875t0.1162109375-1.244140625q0-0.751953125-0.2939453125-1.2578125t-0.9638671875-0.8203125q0,0.02734375,0.02734375,0.02734375t0.02734375-0.02734375l-0.341796875-0.08203125q-0.13671875-0.0546875-0.3349609375-0.123046875t-0.3896484375-0.30078125q-0.533203125,0.19140625-0.8271484375,0.4921875t-0.4443359375,0.7314453125t-0.1845703125,1.0322265625t-0.0341796875,1.44921875z M38.2194921875,105.373046875q0-0.560546875,0.328125-0.9638671875t0.7998046875-0.65625t1.0322265625-0.3759765625t1.0390625-0.123046875q0.369140625,0,0.984375,0.109375t1.203125,0.328125t1.0185546875,0.57421875t0.4306640625,0.833984375q0,0.21875-0.1640625,0.3896484375t-0.341796875,0.1708984375q-0.369140625,0-0.669921875-0.2392578125t-0.6220703125-0.505859375t-0.7041015625-0.505859375t-0.861328125-0.2392578125t-0.8681640625,0.3076171875t-0.3896484375,0.8134765625q0,0.833984375,0.587890625,1.6337890625t1.2919921875,1.681640625t1.2919921875,1.8525390625t0.587890625,2.146484375q0,0.505859375-0.2119140625,0.8544921875t-0.560546875,0.5673828125t-0.7861328125,0.3349609375t-0.84765625,0.1162109375q-0.451171875,0-1.052734375-0.2119140625t-1.134765625-0.560546875t-0.8955078125-0.8134765625t-0.3623046875-0.970703125q0-0.24609375,0.3486328125-0.314453125t0.5126953125-0.068359375q0.08203125,0,0.2529296875,0.0546875t0.3349609375,0.123046875t0.2939453125,0.150390625t0.1025390625,0.177734375q0.13671875,0.1640625,0.4169921875,0.4853515625t0.560546875,0.51953125t0.4921875,0.1435546875t0.2119140625-0.615234375q0-1.06640625-0.57421875-1.9619140625t-1.2509765625-1.75t-1.2509765625-1.6953125t-0.57421875-1.7978515625z M53.181171875,103.951171875q0-0.642578125,0.2529296875-0.9501953125t0.9228515625-0.3076171875q0.396484375,0,0.7451171875,0.1640625t0.3486328125,0.697265625q0.0546875,0.779296875,0.0546875,1.6337890625t0.150390625,1.6201171875q0.341796875-0.560546875,0.7724609375-1.12109375t0.9501953125-0.998046875t1.134765625-0.7041015625t1.33984375-0.2666015625q0.984375,0,1.66796875,0.41015625t1.1279296875,1.06640625t0.642578125,1.4833984375t0.1982421875,1.6611328125q0,1.28515625-0.3896484375,2.0986328125t-1.0322265625,1.2783203125t-1.4560546875,0.62890625t-1.6337890625,0.1640625q-0.724609375,0-1.353515625-0.2802734375t-0.875-1.0595703125q0-0.21875,0.3212890625-0.2734375t0.4580078125-0.0546875q0.451171875,0,0.669921875,0.24609375q0.1640625,0.19140625,0.3623046875,0.3896484375t0.4169921875,0.1982421875q0.423828125,0,0.888671875-0.2392578125t0.8544921875-0.62890625t0.65625-0.9228515625t0.2666015625-1.09375q0-0.478515625-0.08203125-1.189453125t-0.2802734375-1.3671875t-0.546875-1.134765625t-0.8818359375-0.478515625q-0.806640625,0-1.4560546875,0.73828125t-1.080078125,1.77734375t-0.669921875,2.16015625t-0.2392578125,1.873046875t0.095703125,1.900390625t0.1982421875,2.3857421875t0.1982421875,2.3857421875t0.095703125,1.900390625q0,0.19140625-0.1572265625,0.3076171875t-0.3759765625,0.1845703125t-0.4443359375,0.08203125t-0.3349609375,0.013671875q-0.369140625,0-0.7724609375-0.08203125t-0.5537109375-0.505859375q-0.19140625-0.669921875-0.35546875-1.9072265625t-0.2939453125-2.734375t-0.2255859375-3.14453125t-0.1640625-3.1787109375t-0.1025390625-2.802734375t-0.0341796875-2.0234375z M66.28798828125,113.75390625q0-0.396484375,0.0341796875-0.833984375t0.0615234375-0.8203125l0.08203125-2.05078125q0.13671875-2.4609375,0.3349609375-4.83984375t0.3349609375-4.8125q0.08203125-1.33984375,0.123046875-2.6318359375t0.123046875-2.6318359375q-0.0546875-0.109375-0.0546875-0.150390625q0-0.19140625,0.1435546875-0.30078125t0.3349609375-0.1845703125t0.4033203125-0.1025390625t0.3212890625-0.02734375l0.314453125,0q0.423828125,0.0546875,0.615234375,0.2666015625t0.24609375,0.505859375t0.02734375,0.62890625t-0.02734375,0.6220703125q0,1.982421875-0.095703125,4.0400390625t-0.21875,4.12890625t-0.2255859375,4.142578125t-0.1025390625,4.0947265625l0,0.95703125q0,0.642578125-0.3623046875,0.84765625t-1.0048828125,0.205078125q-0.560546875,0-0.984375-0.24609375t-0.423828125-0.806640625z M72.5588671875,108.900390625q0-0.9296875,0.2529296875-1.791015625t0.7587890625-1.5380859375t1.2646484375-1.080078125t1.7568359375-0.4033203125q0.615234375,0,1.3603515625,0.1845703125t1.4013671875,0.546875t1.09375,0.9228515625t0.4375,1.28515625q0,0.341796875-0.1162109375,0.51953125t-0.4716796875,0.177734375l-0.150390625-0.02734375q0.396484375,1.06640625,0.68359375,2.1875t0.560546875,2.2421875q0.109375,0.21875,0.1640625,0.3896484375t0.0546875,0.3349609375q0,0.21875-0.123046875,0.3623046875t-0.3212890625,0.2119140625t-0.41015625,0.095703125t-0.3759765625,0.02734375q-0.587890625,0-0.8818359375-0.205078125t-0.423828125-0.560546875t-0.1572265625-0.7998046875t-0.109375-0.8955078125q-0.1640625,0.533203125-0.4306640625,1.0390625t-0.62890625,0.9091796875t-0.8544921875,0.642578125t-1.107421875,0.2392578125q-0.90234375,0-1.517578125-0.51953125t-0.9912109375-1.2783203125t-0.546875-1.6201171875t-0.1708984375-1.599609375z M74.5002734375,108.708984375q0,0.505859375,0.068359375,1.06640625t0.2255859375,1.107421875t0.4033203125,1.0322265625t0.615234375,0.8544921875q0.669921875-0.724609375,0.9912109375-1.763671875t0.57421875-2.0029296875t0.57421875-1.654296875t0.9912109375-0.6904296875q0.423828125,0,0.7109375,0.150390625q-0.13671875-0.341796875-0.451171875-0.6630859375t-0.7041015625-0.587890625t-0.806640625-0.4375t-0.7861328125-0.1708984375q-0.109375,0-0.2529296875,0.0341796875t-0.2255859375,0.0068359375q-0.560546875,0.1640625-0.9228515625,0.5673828125t-0.587890625,0.9501953125t-0.3212890625,1.12109375t-0.095703125,1.080078125z M84.42154296875,108.96875l0-0.396484375q0-0.4921875,0.02734375-0.9296875q0.02734375-0.615234375,0.02734375-1.01171875q0-0.21875,0.02734375-0.4990234375t0.13671875-0.4443359375q0.13671875-0.13671875,0.3212890625-0.2802734375t0.4033203125-0.1435546875q0.697265625,0,1.09375,0.1572265625t0.423828125,0.6494140625l0.0546875,0.423828125q0.24609375-0.587890625,0.65625-1.4560546875t0.9501953125-1.654296875t1.216796875-1.33984375t1.4287109375-0.5537109375q0.697265625,0,1.1484375,0.65625t0.7177734375,1.6748046875t0.3759765625,2.26953125t0.150390625,2.4541015625t0.0546875,2.1943359375t0.095703125,1.4970703125q0.0546875,0.423828125,0.1845703125,0.8955078125t0.1298828125,0.8681640625q0,0.109375-0.1572265625,0.2119140625t-0.3349609375,0.1708984375t-0.3623046875,0.109375t-0.2666015625,0.041015625q-0.533203125,0-0.7587890625-0.7998046875t-0.2802734375-2.0029296875t-0.0546875-2.6044921875t-0.095703125-2.6044921875t-0.3896484375-2.0029296875t-0.9365234375-0.8271484375q-0.587890625,0-1.216796875,0.7587890625t-1.080078125,2.0166015625q-0.4375,1.2578125-0.6015625,2.857421875q-0.0546875,0.505859375-0.0546875,1.01171875q0,1.107421875,0.232421875,2.21484375q0.02734375,0.19140625-0.1572265625,0.287109375t-0.4580078125,0.150390625t-0.5537109375,0.068359375t-0.4306640625,0.013671875q-0.533203125,0-0.8544921875-0.3759765625t-0.4990234375-0.9638671875t-0.2392578125-1.3193359375t-0.0751953125-1.4423828125z M96.28421875,100.21875q0-0.19140625,0.41015625-0.328125t0.9296875-0.2255859375t1.0048828125-0.1298828125t0.6630859375-0.068359375q0-0.369140625,0.02734375-0.7451171875t0.150390625-0.669921875t0.3896484375-0.4716796875t0.7451171875-0.177734375q0.396484375,0,0.6015625,0.095703125t0.4375,0.396484375q0.0546875,0.1640625,0.0546875,0.314453125l0,0.4580078125t-0.02734375,0.4716796875q0.505859375-0.0546875,1.0048828125-0.1298828125t1.0048828125-0.0751953125q0.369140625,0,0.505859375,0.013671875t0.2734375,0.328125q0.109375,0.314453125-0.2666015625,0.478515625t-0.90234375,0.24609375t-1.0458984375,0.123046875t-0.62890625,0.041015625q-0.1640625,2.3515625-0.3349609375,4.662109375t-0.1708984375,4.689453125q0,1.06640625,0.068359375,2.201171875t0.3828125,2.146484375q0.08203125,0.314453125,0.2734375,0.587890625t0.19140625,0.587890625q0,0.19140625-0.150390625,0.30078125t-0.3623046875,0.1845703125t-0.423828125,0.0888671875t-0.3486328125,0.013671875q-0.861328125,0-1.3125-0.642578125t-0.6494140625-1.5380859375t-0.2119140625-1.8388671875t-0.013671875-1.53125q0-1.203125,0.0478515625-2.4609375t0.1162109375-2.48828125t0.19140625-2.40625t0.287109375-2.1875q-0.478515625,0.0546875-0.9365234375,0.123046875t-0.9365234375,0.068359375q-0.109375,0-0.2939453125-0.013671875t-0.3486328125-0.068359375t-0.2802734375-0.150390625t-0.1162109375-0.2734375z M106.73869140625,109.4609375q0-0.95703125,0.2119140625-2.255859375t0.7177734375-2.4609375t1.3330078125-1.9755859375t2.0849609375-0.8134765625q1.17578125,0,1.763671875,0.6767578125t0.587890625,1.8251953125q0,0.751953125-0.2802734375,1.6474609375t-0.7998046875,1.6953125t-1.23046875,1.3330078125t-1.5859375,0.533203125l-0.35546875-0.02734375q0,0.369140625,0.109375,0.9912109375t0.3212890625,1.2373046875t0.546875,1.080078125t0.8134765625,0.46484375q0.697265625,0,1.33984375-0.560546875t1.216796875-1.244140625t1.06640625-1.244140625t0.90234375-0.560546875q0.21875,0,0.451171875,0.068359375t0.259765625,0.3828125q0,0.19140625-0.1025390625,0.314453125t-0.1845703125,0.2734375q-0.423828125,0.724609375-0.9228515625,1.380859375t-1.1279296875,1.189453125t-1.3740234375,0.8408203125t-1.6474609375,0.3076171875q-1.17578125,0-1.955078125-0.4169921875t-1.2578125-1.12109375t-0.6904296875-1.626953125t-0.2119140625-1.9345703125z M109.18595703125,108.421875l0.3828125,0.341796875q0.2734375,0.24609375,0.546875,0.109375t0.4921875-0.4990234375t0.4033203125-0.8955078125t0.328125-1.09375t0.2119140625-1.09375t0.068359375-0.888671875l0-0.46484375t-0.041015625-0.4921875t-0.1435546875-0.3896484375t-0.3212890625-0.1982421875q-0.068359375-0.013671875-0.123046875-0.013671875q-0.46484375,0-0.79296875,0.587890625q-0.35546875,0.65625-0.57421875,1.5927734375t-0.314453125,1.9208984375t-0.123046875,1.4765625z M118.1638671875,105.373046875q0-0.560546875,0.328125-0.9638671875t0.7998046875-0.65625t1.0322265625-0.3759765625t1.0390625-0.123046875q0.369140625,0,0.984375,0.109375t1.203125,0.328125t1.0185546875,0.57421875t0.4306640625,0.833984375q0,0.21875-0.1640625,0.3896484375t-0.341796875,0.1708984375q-0.369140625,0-0.669921875-0.2392578125t-0.6220703125-0.505859375t-0.7041015625-0.505859375t-0.861328125-0.2392578125t-0.8681640625,0.3076171875t-0.3896484375,0.8134765625q0,0.833984375,0.587890625,1.6337890625t1.2919921875,1.681640625t1.2919921875,1.8525390625t0.587890625,2.146484375q0,0.505859375-0.2119140625,0.8544921875t-0.560546875,0.5673828125t-0.7861328125,0.3349609375t-0.84765625,0.1162109375q-0.451171875,0-1.052734375-0.2119140625t-1.134765625-0.560546875t-0.8955078125-0.8134765625t-0.3623046875-0.970703125q0-0.24609375,0.3486328125-0.314453125t0.5126953125-0.068359375q0.08203125,0,0.2529296875,0.0546875t0.3349609375,0.123046875t0.2939453125,0.150390625t0.1025390625,0.177734375q0.13671875,0.1640625,0.4169921875,0.4853515625t0.560546875,0.51953125t0.4921875,0.1435546875t0.2119140625-0.615234375q0-1.06640625-0.57421875-1.9619140625t-1.2509765625-1.75t-1.2509765625-1.6953125t-0.57421875-1.7978515625z"/><path fill="#4b754d" d="M132.73845703125,110.587890625q0-0.4443359375,0.3046875-0.56494140625t0.66015625-0.12060546875q0.6220703125,0,1.0537109375,0.55859375t0.81884765625,1.22509765625t0.76806640625,1.22509765625t0.9013671875,0.55859375q0.3935546875,0,0.71728515625-0.19677734375t0.55859375-0.4951171875t0.36181640625-0.6728515625t0.126953125-0.74267578125q0-0.96484375-0.38720703125-1.9931640625t-0.990234375-2.1201171875t-1.27587890625-2.234375t-1.26953125-2.3232421875t-0.990234375-2.40576171875t-0.3935546875-2.46923828125q0-1.8662109375,1.1171875-2.89453125t2.9453125-1.0283203125q0.6220703125,0,1.2568359375,0.177734375t1.16796875,0.533203125t0.86962890625,0.8759765625t0.33642578125,1.21875q0,0.228515625-0.33642578125,0.29833984375t-0.48876953125,0.06982421875q-0.228515625,0-0.4951171875-0.05712890625t-0.3427734375-0.31103515625t-0.2158203125-0.583984375t-0.34912109375-0.61572265625t-0.4951171875-0.4951171875t-0.62841796875-0.20947265625q-0.5712890625,0-0.97119140625,0.23486328125t-0.6474609375,0.62841796875t-0.3681640625,0.88232421875t-0.12060546875,1.00927734375q0,1.21875,0.4189453125,2.45654296875t1.041015625,2.462890625t1.35205078125,2.41845703125t1.35205078125,2.3232421875t1.041015625,2.208984375t0.4189453125,2.0439453125q0,0.86328125-0.40625,1.4599609375t-1.0283203125,0.97119140625t-1.37744140625,0.5458984375t-1.47900390625,0.17138671875q-0.7744140625,0-1.5869140625-0.31103515625t-1.4599609375-0.85693359375t-1.06640625-1.27587890625t-0.4189453125-1.58056640625z M143.90614257812,108.505859375q0-0.7236328125,0.18408203125-1.49169921875t0.583984375-1.3837890625t1.00927734375-1.0029296875t1.47265625-0.38720703125q0.6474609375,0,1.36474609375,0.22216796875t1.31396484375,0.634765625t0.97119140625,1.00927734375t0.37451171875,1.3330078125q0,0.888671875-0.32373046875,1.6884765625t-0.90771484375,1.42822265625t-1.36474609375,0.990234375t-1.69482421875,0.36181640625q-0.7490234375,0-1.3076171875-0.27294921875t-0.93310546875-0.72998046875t-0.55859375-1.0791015625t-0.18408203125-1.3203125z M145.77235351562,108.48046875q0,0.228515625,0.06982421875,0.6728515625t0.20947265625,0.86962890625t0.36181640625,0.736328125t0.53955078125,0.28564453125q0.6728515625-0.076171875,1.11083984375-0.43798828125t0.7109375-0.88232421875t0.380859375-1.1298828125t0.10791015625-1.1552734375q0-0.6982421875-0.27294921875-1.16796875t-0.89501953125-0.76171875q0,0.025390625,0.025390625,0.025390625t0.025390625-0.025390625l-0.3173828125-0.076171875q-0.126953125-0.05078125-0.31103515625-0.1142578125t-0.36181640625-0.279296875q-0.4951171875,0.177734375-0.76806640625,0.45703125t-0.41259765625,0.67919921875t-0.17138671875,0.95849609375t-0.03173828125,1.345703125z M153.525,104.9892578125q0-0.5205078125,0.3046875-0.89501953125t0.74267578125-0.609375t0.95849609375-0.34912109375t0.96484375-0.1142578125q0.3427734375,0,0.9140625,0.1015625t1.1171875,0.3046875t0.94580078125,0.533203125t0.39990234375,0.7744140625q0,0.203125-0.15234375,0.36181640625t-0.3173828125,0.15869140625q-0.3427734375,0-0.6220703125-0.22216796875t-0.57763671875-0.4697265625t-0.65380859375-0.4697265625t-0.7998046875-0.22216796875t-0.80615234375,0.28564453125t-0.36181640625,0.75537109375q0,0.7744140625,0.5458984375,1.51708984375t1.19970703125,1.5615234375t1.19970703125,1.72021484375t0.5458984375,1.9931640625q0,0.4697265625-0.19677734375,0.79345703125t-0.5205078125,0.52685546875t-0.72998046875,0.31103515625t-0.787109375,0.10791015625q-0.4189453125,0-0.9775390625-0.19677734375t-1.0537109375-0.5205078125t-0.83154296875-0.75537109375t-0.33642578125-0.9013671875q0-0.228515625,0.32373046875-0.2919921875t0.47607421875-0.0634765625q0.076171875,0,0.23486328125,0.05078125t0.31103515625,0.1142578125t0.27294921875,0.1396484375t0.09521484375,0.1650390625q0.126953125,0.15234375,0.38720703125,0.45068359375t0.5205078125,0.482421875t0.45703125,0.13330078125t0.19677734375-0.5712890625q0-0.990234375-0.533203125-1.82177734375t-1.16162109375-1.625t-1.16162109375-1.57421875t-0.533203125-1.66943359375z M167.41798828125,103.6689453125q0-0.5966796875,0.23486328125-0.88232421875t0.85693359375-0.28564453125q0.3681640625,0,0.69189453125,0.15234375t0.32373046875,0.6474609375q0.05078125,0.7236328125,0.05078125,1.51708984375t0.1396484375,1.50439453125q0.3173828125-0.5205078125,0.71728515625-1.041015625t0.88232421875-0.9267578125t1.0537109375-0.65380859375t1.244140625-0.24755859375q0.9140625,0,1.548828125,0.380859375t1.04736328125,0.990234375t0.5966796875,1.37744140625t0.18408203125,1.54248046875q0,1.193359375-0.36181640625,1.94873046875t-0.95849609375,1.18701171875t-1.35205078125,0.583984375t-1.51708984375,0.15234375q-0.6728515625,0-1.2568359375-0.26025390625t-0.8125-0.98388671875q0-0.203125,0.29833984375-0.25390625t0.42529296875-0.05078125q0.4189453125,0,0.6220703125,0.228515625q0.15234375,0.177734375,0.33642578125,0.36181640625t0.38720703125,0.18408203125q0.3935546875,0,0.8251953125-0.22216796875t0.79345703125-0.583984375t0.609375-0.85693359375t0.24755859375-1.015625q0-0.4443359375-0.076171875-1.1044921875t-0.26025390625-1.26953125t-0.5078125-1.0537109375t-0.81884765625-0.4443359375q-0.7490234375,0-1.35205078125,0.685546875t-1.0029296875,1.650390625t-0.6220703125,2.005859375t-0.22216796875,1.7392578125t0.0888671875,1.7646484375t0.18408203125,2.21533203125t0.18408203125,2.21533203125t0.0888671875,1.7646484375q0,0.177734375-0.14599609375,0.28564453125t-0.34912109375,0.17138671875t-0.41259765625,0.076171875t-0.31103515625,0.0126953125q-0.3427734375,0-0.71728515625-0.076171875t-0.51416015625-0.4697265625q-0.177734375-0.6220703125-0.330078125-1.77099609375t-0.27294921875-2.5390625t-0.20947265625-2.919921875t-0.15234375-2.95166015625t-0.09521484375-2.6025390625t-0.03173828125-1.87890625z M179.58860351562,112.771484375q0-0.3681640625,0.03173828125-0.7744140625t0.05712890625-0.76171875l0.076171875-1.904296875q0.126953125-2.28515625,0.31103515625-4.494140625t0.31103515625-4.46875q0.076171875-1.244140625,0.1142578125-2.44384765625t0.1142578125-2.44384765625q-0.05078125-0.1015625-0.05078125-0.1396484375q0-0.177734375,0.13330078125-0.279296875t0.31103515625-0.17138671875t0.37451171875-0.09521484375t0.29833984375-0.025390625l0.2919921875,0q0.3935546875,0.05078125,0.5712890625,0.24755859375t0.228515625,0.4697265625t0.025390625,0.583984375t-0.025390625,0.57763671875q0,1.8408203125-0.0888671875,3.75146484375t-0.203125,3.833984375t-0.20947265625,3.8466796875t-0.09521484375,3.80224609375l0,0.888671875q0,0.5966796875-0.33642578125,0.787109375t-0.93310546875,0.1904296875q-0.5205078125,0-0.9140625-0.228515625t-0.3935546875-0.7490234375z M185.4115625,108.2646484375q0-0.86328125,0.23486328125-1.6630859375t0.70458984375-1.42822265625t1.17431640625-1.0029296875t1.63134765625-0.37451171875q0.5712890625,0,1.26318359375,0.17138671875t1.30126953125,0.5078125t1.015625,0.85693359375t0.40625,1.193359375q0,0.3173828125-0.10791015625,0.482421875t-0.43798828125,0.1650390625l-0.1396484375-0.025390625q0.3681640625,0.990234375,0.634765625,2.03125t0.5205078125,2.08203125q0.1015625,0.203125,0.15234375,0.36181640625t0.05078125,0.31103515625q0,0.203125-0.1142578125,0.33642578125t-0.29833984375,0.19677734375t-0.380859375,0.0888671875t-0.34912109375,0.025390625q-0.5458984375,0-0.81884765625-0.1904296875t-0.3935546875-0.5205078125t-0.14599609375-0.74267578125t-0.1015625-0.83154296875q-0.15234375,0.4951171875-0.39990234375,0.96484375t-0.583984375,0.84423828125t-0.79345703125,0.5966796875t-1.0283203125,0.22216796875q-0.837890625,0-1.4091796875-0.482421875t-0.92041015625-1.18701171875t-0.5078125-1.50439453125t-0.15869140625-1.4853515625z M187.214296875,108.0869140625q0,0.4697265625,0.0634765625,0.990234375t0.20947265625,1.0283203125t0.37451171875,0.95849609375t0.5712890625,0.79345703125q0.6220703125-0.6728515625,0.92041015625-1.6376953125t0.533203125-1.85986328125t0.533203125-1.5361328125t0.92041015625-0.64111328125q0.3935546875,0,0.66015625,0.1396484375q-0.126953125-0.3173828125-0.4189453125-0.61572265625t-0.65380859375-0.5458984375t-0.7490234375-0.40625t-0.72998046875-0.15869140625q-0.1015625,0-0.23486328125,0.03173828125t-0.20947265625,0.00634765625q-0.5205078125,0.15234375-0.85693359375,0.52685546875t-0.5458984375,0.88232421875t-0.29833984375,1.041015625t-0.0888671875,1.0029296875z M196.42690429687,108.328125l0-0.3681640625q0-0.45703125,0.025390625-0.86328125q0.025390625-0.5712890625,0.025390625-0.939453125q0-0.203125,0.025390625-0.46337890625t0.126953125-0.41259765625q0.126953125-0.126953125,0.29833984375-0.26025390625t0.37451171875-0.13330078125q0.6474609375,0,1.015625,0.14599609375t0.3935546875,0.60302734375l0.05078125,0.3935546875q0.228515625-0.5458984375,0.609375-1.35205078125t0.88232421875-1.5361328125t1.1298828125-1.244140625t1.32666015625-0.51416015625q0.6474609375,0,1.06640625,0.609375t0.66650390625,1.55517578125t0.34912109375,2.107421875t0.1396484375,2.27880859375t0.05078125,2.03759765625t0.0888671875,1.39013671875q0.05078125,0.3935546875,0.17138671875,0.83154296875t0.12060546875,0.80615234375q0,0.1015625-0.14599609375,0.19677734375t-0.31103515625,0.15869140625t-0.33642578125,0.1015625t-0.24755859375,0.0380859375q-0.4951171875,0-0.70458984375-0.74267578125t-0.26025390625-1.85986328125t-0.05078125-2.41845703125t-0.0888671875-2.41845703125t-0.36181640625-1.85986328125t-0.86962890625-0.76806640625q-0.5458984375,0-1.1298828125,0.70458984375t-1.0029296875,1.87255859375q-0.40625,1.16796875-0.55859375,2.6533203125q-0.05078125,0.4697265625-0.05078125,0.939453125q0,1.0283203125,0.2158203125,2.056640625q0.025390625,0.177734375-0.14599609375,0.2666015625t-0.42529296875,0.1396484375t-0.51416015625,0.0634765625t-0.39990234375,0.0126953125q-0.4951171875,0-0.79345703125-0.34912109375t-0.46337890625-0.89501953125t-0.22216796875-1.22509765625t-0.06982421875-1.33935546875z M207.44224609375,100.203125q0-0.177734375,0.380859375-0.3046875t0.86328125-0.20947265625t0.93310546875-0.12060546875t0.61572265625-0.0634765625q0-0.3427734375,0.025390625-0.69189453125t0.1396484375-0.6220703125t0.36181640625-0.43798828125t0.69189453125-0.1650390625q0.3681640625,0,0.55859375,0.0888671875t0.40625,0.3681640625q0.05078125,0.15234375,0.05078125,0.2919921875l0,0.42529296875t-0.025390625,0.43798828125q0.4697265625-0.05078125,0.93310546875-0.12060546875t0.93310546875-0.06982421875q0.3427734375,0,0.4697265625,0.0126953125t0.25390625,0.3046875q0.1015625,0.2919921875-0.24755859375,0.4443359375t-0.837890625,0.228515625t-0.97119140625,0.1142578125t-0.583984375,0.0380859375q-0.15234375,2.18359375-0.31103515625,4.3291015625t-0.15869140625,4.3544921875q0,0.990234375,0.0634765625,2.0439453125t0.35546875,1.9931640625q0.076171875,0.2919921875,0.25390625,0.5458984375t0.177734375,0.5458984375q0,0.177734375-0.1396484375,0.279296875t-0.33642578125,0.17138671875t-0.3935546875,0.08251953125t-0.32373046875,0.0126953125q-0.7998046875,0-1.21875-0.5966796875t-0.60302734375-1.42822265625t-0.19677734375-1.70751953125t-0.0126953125-1.421875q0-1.1171875,0.04443359375-2.28515625t0.10791015625-2.310546875t0.177734375-2.234375t0.2666015625-2.03125q-0.4443359375,0.05078125-0.86962890625,0.1142578125t-0.86962890625,0.0634765625q-0.1015625,0-0.27294921875-0.0126953125t-0.32373046875-0.0634765625t-0.26025390625-0.1396484375t-0.10791015625-0.25390625z M217.14997070313,108.78515625q0-0.888671875,0.19677734375-2.0947265625t0.66650390625-2.28515625t1.23779296875-1.83447265625t1.93603515625-0.75537109375q1.091796875,0,1.6376953125,0.62841796875t0.5458984375,1.69482421875q0,0.6982421875-0.26025390625,1.52978515625t-0.74267578125,1.57421875t-1.142578125,1.23779296875t-1.47265625,0.4951171875l-0.330078125-0.025390625q0,0.3427734375,0.1015625,0.92041015625t0.29833984375,1.14892578125t0.5078125,1.0029296875t0.75537109375,0.431640625q0.6474609375,0,1.244140625-0.5205078125t1.1298828125-1.1552734375t0.990234375-1.1552734375t0.837890625-0.5205078125q0.203125,0,0.4189453125,0.0634765625t0.2412109375,0.35546875q0,0.177734375-0.09521484375,0.2919921875t-0.17138671875,0.25390625q-0.3935546875,0.6728515625-0.85693359375,1.2822265625t-1.04736328125,1.1044921875t-1.27587890625,0.78076171875t-1.52978515625,0.28564453125q-1.091796875,0-1.8154296875-0.38720703125t-1.16796875-1.041015625t-0.64111328125-1.5107421875t-0.19677734375-1.79638671875z M219.42243164063,107.8203125l0.35546875,0.3173828125q0.25390625,0.228515625,0.5078125,0.1015625t0.45703125-0.46337890625t0.37451171875-0.83154296875t0.3046875-1.015625t0.19677734375-1.015625t0.0634765625-0.8251953125l0-0.431640625t-0.0380859375-0.45703125t-0.13330078125-0.36181640625t-0.29833984375-0.18408203125q-0.0634765625-0.0126953125-0.1142578125-0.0126953125q-0.431640625,0-0.736328125,0.5458984375q-0.330078125,0.609375-0.533203125,1.47900390625t-0.2919921875,1.78369140625t-0.1142578125,1.37109375z M227.7590625,104.9892578125q0-0.5205078125,0.3046875-0.89501953125t0.74267578125-0.609375t0.95849609375-0.34912109375t0.96484375-0.1142578125q0.3427734375,0,0.9140625,0.1015625t1.1171875,0.3046875t0.94580078125,0.533203125t0.39990234375,0.7744140625q0,0.203125-0.15234375,0.36181640625t-0.3173828125,0.15869140625q-0.3427734375,0-0.6220703125-0.22216796875t-0.57763671875-0.4697265625t-0.65380859375-0.4697265625t-0.7998046875-0.22216796875t-0.80615234375,0.28564453125t-0.36181640625,0.75537109375q0,0.7744140625,0.5458984375,1.51708984375t1.19970703125,1.5615234375t1.19970703125,1.72021484375t0.5458984375,1.9931640625q0,0.4697265625-0.19677734375,0.79345703125t-0.5205078125,0.52685546875t-0.72998046875,0.31103515625t-0.787109375,0.10791015625q-0.4189453125,0-0.9775390625-0.19677734375t-1.0537109375-0.5205078125t-0.83154296875-0.75537109375t-0.33642578125-0.9013671875q0-0.228515625,0.32373046875-0.2919921875t0.47607421875-0.0634765625q0.076171875,0,0.23486328125,0.05078125t0.31103515625,0.1142578125t0.27294921875,0.1396484375t0.09521484375,0.1650390625q0.126953125,0.15234375,0.38720703125,0.45068359375t0.5205078125,0.482421875t0.45703125,0.13330078125t0.19677734375-0.5712890625q0-0.990234375-0.533203125-1.82177734375t-1.16162109375-1.625t-1.16162109375-1.57421875t-0.533203125-1.66943359375z"/></svg>
